<svg class="animated" id="freepik_stories-art-lover" xmlns="http://www.w3.org/2000/svg" xmlns:xlink="http://www.w3.org/1999/xlink" viewBox="0 0 500 500" version="1.1" xmlns:svgjs="http://svgjs.com/svgjs"><style>svg#freepik_stories-art-lover:not(.animated) .animable {opacity: 0;}svg#freepik_stories-art-lover.animated #freepik--background-simple--inject-2 {animation: 1.6s 1 forwards cubic-bezier(.36,-0.01,.5,1.38) fadeIn;animation-delay: 0s;}svg#freepik_stories-art-lover.animated #freepik--Background--inject-2 {animation: 1.0s 1 forwards cubic-bezier(.36,-0.01,.5,1.38) fadeIn;animation-delay: 0s;}svg#freepik_stories-art-lover.animated #freepik--Picture--inject-2 {animation: 1s 1 forwards cubic-bezier(.36,-0.01,.5,1.38) fadeIn;animation-delay: 0s;}svg#freepik_stories-art-lover.animated #freepik--Character--inject-2 {animation: 1.0s 1 forwards cubic-bezier(.36,-0.01,.5,1.38) fadeIn;animation-delay: s;}            @keyframes fadeIn {                0% {                    opacity: 0;                }                100% {                    opacity: 1;                }            }        </style><g id="freepik--background-simple--inject-2" class="animable animator-active" style="transform-origin: 246.402px 228.206px;"><path d="M421.56,139.92s-25.48-47.87-81.75-55-95.55,27.48-137,45.21c-21.68,9.28-46.45,5.68-69.47,10.17C59.78,154.71,32.05,244.75,62.71,296c26.54,44.33,73.26,67.38,144.39,72.7s121,11.52,184.73-31.92S451.29,202.86,421.56,139.92Z" style="fill: rgb(23, 219, 235); transform-origin: 246.402px 228.206px;" id="eltwpqddz96ff" class="animable"></path><g id="elx27bn05c8"><path d="M421.56,139.92s-25.48-47.87-81.75-55-95.55,27.48-137,45.21c-21.68,9.28-46.45,5.68-69.47,10.17C59.78,154.71,32.05,244.75,62.71,296c26.54,44.33,73.26,67.38,144.39,72.7s121,11.52,184.73-31.92S451.29,202.86,421.56,139.92Z" style="fill: rgb(255, 255, 255); opacity: 0.8; transform-origin: 246.402px 228.206px;" class="animable"></path></g></g><g id="freepik--Background--inject-2" class="animable" style="transform-origin: 251.42px 229.355px;"><polyline points="356.17 298.3 376.68 298.3 442.3 342.83" style="fill: none; stroke: rgb(38, 50, 56); stroke-miterlimit: 10; transform-origin: 399.235px 320.565px;" id="el9chq5pqvq5v" class="animable"></polyline><line x1="377.17" y1="298.3" x2="377.17" y2="115.88" style="fill: none; stroke: rgb(38, 50, 56); stroke-miterlimit: 10; transform-origin: 377.17px 207.09px;" id="el6iwdnxf2s0u" class="animable"></line><polyline points="146.4 298.3 122.75 298.3 60.54 338.63" style="fill: none; stroke: rgb(38, 50, 56); stroke-miterlimit: 10; transform-origin: 103.47px 318.465px;" id="el34tbeds9463" class="animable"></polyline><line x1="122.75" y1="298.3" x2="122.75" y2="115.88" style="fill: none; stroke: rgb(38, 50, 56); stroke-miterlimit: 10; transform-origin: 122.75px 207.09px;" id="el1axynnmo80t" class="animable"></line><polygon points="63.36 278.25 81.27 267.73 81.27 198.36 63.36 207.32 63.36 278.25" style="fill: none; stroke: rgb(38, 50, 56); stroke-miterlimit: 10; transform-origin: 72.315px 238.305px;" id="elrhxmscbvkbc" class="animable"></polygon><path d="M80.45,198.73l-3.13,1.38c-2.36,4-4.59,10.41-6.1,14.38a89.78,89.78,0,0,1-7.86,15.68v3.43A93.8,93.8,0,0,0,73,215.15C76.08,206.91,78.67,201.16,80.45,198.73Z" style="fill: rgb(38, 50, 56); transform-origin: 71.905px 216.165px;" id="elu1nkicvsspj" class="animable"></path><path d="M71.48,243.55c-2.32,0-4.21,4.55-4.21,10.16,0,4.24,1.08,7.87,2.6,9.39v11.29L72,273v-9.2c2.06-.66,3.66-4.91,3.66-10.07,0-.81,0-1.59-.12-2.35l5.7-5.87v-3.1l-6.13,6.31C74.41,245.63,73.05,243.55,71.48,243.55Z" style="fill: rgb(38, 50, 56); transform-origin: 74.255px 258.4px;" id="el0hoa92r59dtk" class="animable"></path><path d="M68.73,237.59a80,80,0,0,0-5.37,6.84v3.44a63.74,63.74,0,0,1,6.78-9.06,58.47,58.47,0,0,0,11.13-20.13v-6.85C79.12,220.87,75.34,230,68.73,237.59Z" style="fill: rgb(38, 50, 56); transform-origin: 72.315px 229.85px;" id="elwwiqao0a79f" class="animable"></path><polygon points="94.01 260.92 112.09 249.13 112.09 126.49 94.01 128.85 94.01 260.92" style="fill: none; stroke: rgb(38, 50, 56); stroke-miterlimit: 10; transform-origin: 103.05px 193.705px;" id="eld1n6mu5hirh" class="animable"></polygon><path d="M108.6,142a5.88,5.88,0,0,0,3.49-1.19v-2.6a4.65,4.65,0,0,1-3.49,1.91,3.47,3.47,0,0,1-1.07-.17v-12.9l-1.88.24v11.51c-1.8-1.72-3-4.9-3-8.47a14.49,14.49,0,0,1,.24-2.67l-3.46.45v25.56a4.84,4.84,0,0,0-1.08-.13,6,6,0,0,0-4.3,2.08v3c1.38-2.07,2.85-3.19,4.3-3.19a3.19,3.19,0,0,1,1.08.21v67a3.17,3.17,0,0,1-1.08.2c-1.45,0-2.92-1.12-4.3-3.18v3a6,6,0,0,0,4.3,2.08,4.84,4.84,0,0,0,1.08-.13v9c-2.57.25-4.48,4.11-4.48,9.18s1.91,8.94,4.48,9.19v5.41l1.87-1.23v-4.67c1.87-1.23,3.14-4.55,3.14-8.7s-1.27-7.46-3.14-8.69V223.81a13.8,13.8,0,0,0,4.39-5.77v35.29l1.88-1.22V213.05a92.95,92.95,0,0,0,0-47.76V141.92A5.4,5.4,0,0,0,108.6,142ZM99.39,250.11c-1.16-.37-2.6-3.07-2.6-7.29s1.44-6.91,2.6-7.28Zm6.26-37.17c-1.26,3.93-2.78,6.82-4.39,8.44V157c1.61,1.62,3.13,4.51,4.39,8.44Zm0-52.64a13.8,13.8,0,0,0-4.39-5.77V134.66a10.47,10.47,0,0,0,4.39,6.55Z" style="fill: rgb(38, 50, 56); transform-origin: 103.07px 192.22px;" id="el2pewx83zhhb" class="animable"></path><polygon points="404.31 219.21 386.4 207.53 386.4 125.82 404.31 128.16 404.31 219.21" style="fill: none; stroke: rgb(38, 50, 56); stroke-miterlimit: 10; transform-origin: 395.355px 172.515px;" id="elckis2xj3zha" class="animable"></polygon><polygon points="402.71 217.64 404.31 218.63 404.31 213.96 402.71 217.64" style="fill: rgb(38, 50, 56); transform-origin: 403.51px 216.295px;" id="elx4d31d7eyxi" class="animable"></polygon><polygon points="393.51 190.93 386.94 207.87 388.55 208.86 393.51 196.07 393.51 211.94 395.37 213.09 395.37 191.28 404.31 168.21 404.31 163.06 395.37 186.13 395.37 163.58 404.31 139.68 404.31 134.37 395.37 158.27 395.37 127 393.51 126.75 393.51 163.24 386.4 182.24 386.4 187.55 393.51 168.55 393.51 190.93" style="fill: rgb(38, 50, 56); transform-origin: 395.355px 169.92px;" id="el27feulxqyw6" class="animable"></polygon><path d="M393,148.52c0,6.14-1.26,11.12-2.82,11.12s-2.82-5-2.82-11.12,1.26-11.11,2.82-11.11S393,142.39,393,148.52Z" style="fill: rgb(38, 50, 56); transform-origin: 390.18px 148.525px;" id="elrmlxo9cften" class="animable"></path><path d="M400.74,196.15c0,2-1,3.7-2.29,3.7s-2.3-1.66-2.3-3.7,1-3.71,2.3-3.71S400.74,194.1,400.74,196.15Z" style="fill: rgb(38, 50, 56); transform-origin: 398.445px 196.145px;" id="elujc85fammh" class="animable"></path><polygon points="63.36 200.19 81.27 191.67 81.27 130.5 63.36 132.83 63.36 200.19" style="fill: none; stroke: rgb(38, 50, 56); stroke-miterlimit: 10; transform-origin: 72.315px 165.345px;" id="elkzijnx9w6e" class="animable"></polygon><polygon points="73.91 163.3 73.91 131.46 72.05 131.7 72.05 167.79 81.27 158.57 81.27 155.94 73.91 163.3" style="fill: rgb(38, 50, 56); transform-origin: 76.66px 149.625px;" id="ely0twpuykja" class="animable"></polygon><path d="M63.36,155.53v2.76c3.88,4.25,7.26,10.22,5.61,17.23a64.9,64.9,0,0,1-5.61,14.57v4A71.67,71.67,0,0,0,70.78,176C72.84,167.2,68.07,160.13,63.36,155.53Z" style="fill: rgb(38, 50, 56); transform-origin: 67.3164px 174.81px;" id="elhj1nfq06bqf" class="animable"></path><path d="M70.81,187a21.15,21.15,0,0,0,1.8,8.83l8.66-4.12V173.34a5,5,0,0,0-2.23-.55C74.49,172.79,70.81,179.14,70.81,187Z" style="fill: rgb(38, 50, 56); transform-origin: 76.039px 184.31px;" id="el3ewb5qcqr" class="animable"></path><polygon points="437.8 276.91 419.89 265.23 419.89 130.5 437.8 132.83 437.8 276.91" style="fill: none; stroke: rgb(38, 50, 56); stroke-miterlimit: 10; transform-origin: 428.845px 203.705px;" id="ell2wwwxo43un" class="animable"></polygon><path d="M437.8,141.5c-.86,1.51-1.86,3.32-2.92,5.37l-10.55-2.71V131.08l-1.86-.25v14.78l11.54,3c-4.21,8.36-9.1,19.93-10.5,30.85-1.21,9.44,1.14,17.26,3.42,24.83,2.64,8.75,5.11,17,2.55,27.72l-9.59-4.65v2.07l9.12,4.42a83.51,83.51,0,0,1-4.86,13.06l-4.26-2.47v2.15l3.45,2c-1.14,2.3-2.31,4.4-3.45,6.32v3.52a95.37,95.37,0,0,0,5.06-8.9l9.34,5.42a102.42,102.42,0,0,1-7.76,14.65l1.55,1a104.58,104.58,0,0,0,7.82-14.73l1.9,1.1V254.8l-1.17-.68c.4-1,.79-2,1.17-3v-5.84C437,248,436,250.68,435,253.18l-9.25-5.37a85.28,85.28,0,0,0,4.95-13.17l7.09,3.43V236l-6.6-3.2c2.83-11.37.14-20.38-2.49-29.09-2.22-7.38-4.52-15-3.36-24.06,1.39-10.83,6.32-22.37,10.5-30.61l1.95.5v-1.92l-1.08-.28,1.08-2Z" style="fill: rgb(38, 50, 56); transform-origin: 428.845px 200.715px;" id="elt8eq6rptwjq" class="animable"></path><path d="M435,201.68c.95,2.49,1.92,5.06,2.81,7.75v-5.58L436.73,201c-3.2-8.4-6-15.65-3.65-23.29a49,49,0,0,1,4.72-10.5v-3.59a54.34,54.34,0,0,0-6.5,13.56C428.8,185.44,431.8,193.33,435,201.68Z" style="fill: rgb(38, 50, 56); transform-origin: 434.091px 186.525px;" id="elimmbfrofvi" class="animable"></path><path d="M426.49,220.48c0-2.24-.95-4-2.12-4s-2.11,1.81-2.11,4,.95,4.06,2.11,4.06S426.49,222.73,426.49,220.48Z" style="fill: rgb(38, 50, 56); transform-origin: 424.375px 220.51px;" id="eli8l4b4ujdx" class="animable"></path></g><g id="freepik--Picture--inject-2" class="animable" style="transform-origin: 249.225px 241.89px;"><polyline points="146.4 90.89 146.4 400.65 352.05 400.65 352.05 83.13" style="fill: rgb(255, 255, 255); stroke: rgb(38, 50, 56); stroke-miterlimit: 10; transform-origin: 249.225px 241.89px;" id="el81i480ne1y7" class="animable"></polyline><rect x="176.18" y="118.56" width="141.4" height="213.77" style="fill: rgb(255, 255, 255); transform-origin: 246.88px 225.445px;" id="el0v5ah6qnvymk" class="animable"></rect><g style="clip-path: url(&quot;#freepik--clip-path--inject-2&quot;); transform-origin: 246.88px 225.48px;" id="elw6u6h8d1d2" class="animable"><g id="el0ymv06r6xv2"><rect x="176.18" y="118.56" width="141.4" height="213.77" style="opacity: 0.18; transform-origin: 246.88px 225.445px;" class="animable"></rect></g><rect x="259.76" y="118.56" width="57.82" height="213.77" style="fill: rgb(38, 50, 56); stroke: rgb(38, 50, 56); stroke-miterlimit: 10; transform-origin: 288.67px 225.445px;" id="eldu4e7wfqqyg" class="animable"></rect><rect x="176.18" y="192.69" width="141.4" height="65.51" style="fill: rgb(38, 50, 56); transform-origin: 246.88px 225.445px;" id="eluape1zp9a6" class="animable"></rect><rect x="282.22" y="118.56" width="5.19" height="213.77" style="fill: rgb(23, 219, 235); transform-origin: 284.815px 225.445px;" id="elyiwimy55wln" class="animable"></rect><rect x="215.55" y="118.56" width="5.19" height="213.77" style="fill: rgb(38, 50, 56); transform-origin: 218.145px 225.445px;" id="elvwj8e8a3zos" class="animable"></rect><path d="M185.33,328.33a.25.25,0,0,1-.19-.09,2.11,2.11,0,0,1-.7-1.67.25.25,0,0,1,.28-.22.25.25,0,0,1,.22.27,1.66,1.66,0,0,0,.58,1.3.25.25,0,0,1,0,.35A.27.27,0,0,1,185.33,328.33Z" style="fill: rgb(38, 50, 56); transform-origin: 185.015px 327.339px;" id="elhspbf06v8j" class="animable"></path><path d="M186.57,329.52l-.43,0a.26.26,0,0,1-.2-.22,2.15,2.15,0,0,1,.35-1.36,1.57,1.57,0,0,0,.28-1.23c-.1-.4-.25-.53-.33-.55s-.05,0-.09,0a.65.65,0,0,0,0,.63.26.26,0,0,1-.11.34.25.25,0,0,1-.34-.12,1.07,1.07,0,0,1,0-1.15.58.58,0,0,1,.59-.23c.19,0,.53.22.71.93a2.09,2.09,0,0,1-.33,1.58,2.08,2.08,0,0,0-.31.87c.73.06,1-.26,1.22-.92a.25.25,0,1,1,.47.18A1.57,1.57,0,0,1,186.57,329.52Z" style="fill: rgb(38, 50, 56); transform-origin: 186.8px 327.569px;" id="el901ku3rcdr4" class="animable"></path><path d="M188.31,328.3a.86.86,0,0,1-.68-.3,2.8,2.8,0,0,1,0-2.71.22.22,0,0,1,.12-.09.26.26,0,0,1,.19-.13,1.64,1.64,0,0,1,1.79,1.2,1.47,1.47,0,0,1-.71,1.83A1.64,1.64,0,0,1,188.31,328.3Zm-.4-2.32a2.09,2.09,0,0,0,.09,1.69c.16.18.44.17.83,0a1,1,0,0,0,.45-1.23,1.13,1.13,0,0,0-1.06-.86.76.76,0,0,0,0,.15.25.25,0,0,1-.21.28A.14.14,0,0,1,187.91,326Z" style="fill: rgb(38, 50, 56); transform-origin: 188.553px 326.679px;" id="eln7xk0zbomeg" class="animable"></path><path d="M181.6,327.67a1.94,1.94,0,0,1-1.13-.13,2.79,2.79,0,0,0-.51-.23c-.17,0-.26.12-.44-.11l-.11-.15h0c-.06-.08-.07-.18,0-.22a3.45,3.45,0,0,0,.26-1.39,9.34,9.34,0,0,1,.18-2.12c.19-1.07.9-4.57,1.87-4.42.45.07.67.53.44,2.73a11.7,11.7,0,0,1-1.1,4.06,1.88,1.88,0,0,0-.33,1.12l.06,0c.18.16.48.16.86,0s.37-.46.45-1,.13-.79.49-.92.71.11,1,.36l.18.15c.08,0,.33-.4.56-.9,0,0,0,0,.12-.48a4.24,4.24,0,0,1,.38-1.16l.11-.16a1.51,1.51,0,0,1,.62-.06.24.24,0,0,1,.1.27c0,.1-.07.26-.09.35s0,.19.1.2l.27-.08a1.6,1.6,0,0,0,1.15-1,2.54,2.54,0,0,1,1-1.18l1-.58c.23-.14.2-.58.49-.67.56-.18.25.92.09,1.11a4.63,4.63,0,0,1-1.16.78,1.85,1.85,0,0,0-.72.88,2.3,2.3,0,0,1-1.61,1.4l-.16.05a1.88,1.88,0,0,0-.81,0c-.2.85-.4,1.73-1,1.94a1.11,1.11,0,0,1-1-.3l-.1-.09c-.07-.05-.15,0-.17.11V326a1.75,1.75,0,0,1-.91,1.52Zm-.13-6.82c0-.42-.14-.34-.33.18a15.76,15.76,0,0,0-.57,2.42c-.15.83-.16.94-.16.94,0,.55.13.59.33.07a11.76,11.76,0,0,0,.66-2.91Z" style="fill: rgb(38, 50, 56); transform-origin: 184.631px 323.299px;" id="el92mvdqfawip" class="animable"></path><rect x="248.89" y="118.56" width="5.19" height="213.77" style="fill: rgb(38, 50, 56); transform-origin: 251.485px 225.445px;" id="ell1lnamcsw57" class="animable"></rect><path d="M288.54,220.82c-2.46-6.14-11.06-13.51-18.43-17.2s-17.2,1.85-17.2,1.85a20.6,20.6,0,0,0,3.69-16c-1.85-9.21-6.76-9.21-9.22-12.9s-3.68-7.37-8.6-13.51-10.44-1.85-16-2.46-12.29-5.53-19.66-5.53-12.9,6.76-12.9,6.76-3.07,1.23-6.76,3.07-1.23,8,4.3,12.9,6.14,8,8.6,6.14,0-4.91-5.53-9.21,4.3-3.07,8.6-3.07,14.13,16,15.36,19.66,8.6,14.74,13.52,34.4,5.53,43.62,6.14,64.5c.52,17.76,4.59,36.84,5.8,42.16h5.47c-.54-4-1.64-10.6-3.28-13.9-2.46-4.91-.62-14.13,0-25.19s5.53-16.58,7.37-28.25.61-17.82,8.6-32.56S272,219,282.4,220.82c4.49.8,6.7,2,7.58,2.72A11.67,11.67,0,0,1,288.54,220.82Z" style="fill: rgb(23, 219, 235); transform-origin: 235.843px 243.725px;" id="eluby5qg5736" class="animable"></path><path d="M223.25,332.4H229c.2-11.64.69-50.46-1.91-55.67-3.07-6.15-11.67-8-15.36-11.67l-7.37-7.38s2.46,12.9,7.37,17.82,5.53,9.21,5.53,11.67S222.81,297,224,305.6C224.92,311.8,223.89,325.32,223.25,332.4Z" style="fill: rgb(23, 219, 235); transform-origin: 216.766px 295.04px;" id="elf5i2t42h598" class="animable"></path><path d="M199.46,171.68s7.52,0,9.82,4.65,5.18,12.09,12.67,13.81,15,7.49,15.54,9.79,3.45-1.15,7.48-.58,4.61,6.91,8.64,1.73S255.34,189,251.88,185s-13.24-13.24-15-16.69-7.48-5.18-12.66-4-7.48-3.45-16.69-3.45S190.22,164.72,199.46,171.68Z" style="fill: rgb(38, 50, 56); transform-origin: 225.564px 181.981px;" id="el7v3yjeihexb" class="animable"></path><path d="M253,206.87s-1.87,15.31-1.47,18.58,5.58-11.14,10.19-14.58c7.21-5.39,21.29,3.84,21.29,3.84s-10.2-11.77-17.55-11.77C259,202.94,257.57,203.63,253,206.87Z" style="fill: rgb(38, 50, 56); transform-origin: 267.242px 214.435px;" id="el2kxxbfvrcfh" class="animable"></path><path d="M218.59,286.71s5.57-5.83,5.31-9.55-6.9-6.36-10.35-8.22-7.16-6.63-7.16-6.63S208,270,211.7,273.18s5.57,3.45,6.1,6.11S217.53,287,218.59,286.71Z" style="fill: rgb(38, 50, 56); transform-origin: 215.149px 274.516px;" id="el591340gmoz" class="animable"></path></g><rect x="176.18" y="118.56" width="141.4" height="213.77" style="fill: none; stroke: rgb(38, 50, 56); stroke-miterlimit: 10; stroke-width: 2px; transform-origin: 246.88px 225.445px;" id="elemqvmum15mf" class="animable"></rect></g><g id="freepik--Plants--inject-2" class="animable" style="transform-origin: 131.726px 343.773px;"><path d="M106.52,305.05c1.61.7,5.54.62,5.55.62s-.85-2.58-.92-2.74c-.87-1.8-3.6-4.79-5.82-4.49a2.65,2.65,0,0,0-2.13,3.33C103.57,303.31,105.15,304.45,106.52,305.05Z" style="fill: rgb(38, 50, 56); transform-origin: 107.586px 302.046px;" id="eloj0q42micy9" class="animable"></path><path d="M146.34,305.92s.72-2.62.74-2.79c.28-2-.35-6-2.37-7a2.66,2.66,0,0,0-3.61,1.6c-.55,1.49.14,3.32,1,4.57C143,303.82,146.34,305.92,146.34,305.92Z" style="fill: rgb(38, 50, 56); transform-origin: 144.023px 300.91px;" id="el4tm4yf5jzn" class="animable"></path><path d="M158.1,291.65c-2.23-.24-4.88,2.82-5.7,4.65-.07.15-.89,2.75-.85,2.75h0c-.42.48-.87,1-1.34,1.58-.88,1.07-1.85,2.29-2.83,3.69a47,47,0,0,0-2.92,4.66,34.36,34.36,0,0,0-2.5,5.62s0,0,0,.07c0-.65,0-2.49,0-2.63-.25-2-1.92-5.68-4.12-6.09a2.67,2.67,0,0,0-3.07,2.5c-.13,1.58,1,3.16,2.13,4.16,1.26,1.12,4.76,2.21,5,2.29a47.22,47.22,0,0,0-1.47,6.1c-.22,1.2-.39,2.41-.56,3.63,0-.56,0-1.07,0-1.14-.25-2-1.92-5.68-4.13-6.08a2.65,2.65,0,0,0-3.06,2.49c-.13,1.58,1,3.16,2.13,4.16s4.1,2,4.88,2.25c-.06.47-.12.93-.17,1.4-.27,2.25-.53,4.5-.85,6.7-.12.77-.26,1.53-.39,2.29,0-.5,0-.93,0-1-.26-2-1.92-5.68-4.13-6.08a2.65,2.65,0,0,0-3.06,2.49c-.13,1.58,1,3.16,2.13,4.16a16.91,16.91,0,0,0,4.74,2.2c-.17.77-.33,1.55-.52,2.29-.15.5-.25,1-.42,1.5l-.48,1.47c-.33.93-.68,1.89-1,2.78-.24.63-.48,1.22-.72,1.81.12-.77.33-2.28.33-2.41a10.3,10.3,0,0,0-1.38-5,2.35,2.35,0,0,0,0-.59,2.64,2.64,0,0,0-3.24-2.25c-2.17.58-3.54,4.38-3.65,6.38,0,.12.07,1.41.14,2.22-.11-.47-.21-.93-.33-1.41-.23-1-.48-1.91-.75-2.94l-.45-1.48c-.14-.5-.35-1-.53-1.52-.43-1.17-.92-2.34-1.44-3.5.84-.2,3.81-1,5-1.87s2.45-2.4,2.44-4a2.66,2.66,0,0,0-2.87-2.72c-2.23.25-4.17,3.8-4.57,5.76,0,.12-.16,1.56-.22,2.36-.31-.7-.63-1.4-1-2.09-1-2.07-2.13-4.12-3.22-6.18l.89-2.14a12.14,12.14,0,0,0,3.42-1.45c1.19-.91,2.45-2.4,2.44-4a2.66,2.66,0,0,0-2.87-2.71c-2.23.24-4.17,3.79-4.57,5.75,0,.15-.22,2.22-.24,2.75-.7-1.35-1.39-2.7-2-4.07a44.13,44.13,0,0,1-2.19-5.65c.14,0,3.84-.87,5.21-1.92,1.19-.91,2.45-2.4,2.44-4a2.66,2.66,0,0,0-2.87-2.72c-2.23.25-4.17,3.8-4.57,5.76,0,.13-.17,1.71-.22,2.46l-.13,0a34.17,34.17,0,0,1-1.14-6c-.13-1.11-.18-2.18-.22-3.23.71-.08,3.94-.51,5.27-1.32s2.7-2.12,2.86-3.69a2.66,2.66,0,0,0-2.55-3c-2.25,0-4.56,3.32-5.18,5.22,0,.11-.26,1.2-.41,2,0-.47,0-.95,0-1.41,0-1.69.11-3.25.22-4.62.06-.78.14-1.49.22-2.15.65-.44,3.24-2.27,4-3.58s1.41-3.12.83-4.6a2.65,2.65,0,0,0-3.65-1.5c-2,1-2.52,5-2.19,7,0,.17.78,2.79.82,2.77l0,0c-.08.63-.17,1.31-.25,2.06-.14,1.37-.28,2.93-.32,4.63a49.43,49.43,0,0,0,.13,5.5,35.64,35.64,0,0,0,1,6.07l0,.07c-.36-.55-1.4-2.07-1.49-2.18-1.31-1.51-4.73-3.67-6.8-2.79a2.65,2.65,0,0,0-1.17,3.77c.76,1.39,2.59,2.07,4.07,2.29,1.67.24,5.18-.78,5.46-.86a46,46,0,0,0,2.13,5.9c.48,1.12,1,2.23,1.54,3.34-.32-.47-.61-.89-.66-.95-1.31-1.51-4.73-3.67-6.79-2.79a2.65,2.65,0,0,0-1.18,3.77c.76,1.39,2.59,2.08,4.07,2.29s4.52-.59,5.31-.81l.63,1.27c1,2,2,4,3,6.05.34.71.64,1.42.94,2.13-.28-.42-.53-.77-.57-.82-1.31-1.51-4.73-3.67-6.8-2.79a2.65,2.65,0,0,0-1.17,3.77c.76,1.39,2.59,2.07,4.07,2.29a16.62,16.62,0,0,0,5.16-.78c.29.74.59,1.47.83,2.2.16.5.35,1,.48,1.48l.42,1.49c.23,1,.47,1.95.67,2.89.14.65.27,1.28.4,1.91-.32-.71-1-2.09-1.06-2.19-1.06-1.7-4.12-4.35-6.29-3.8a2.66,2.66,0,0,0-1.74,3.55c.55,1.49,2.25,2.45,3.68,2.88s5.06,0,5.5,0c.21,1,.4,2.05.57,3,.59,3.33,1,6.12,1.17,8.08,0,.35.08.66.11.95H121l1.79,34.91h0l.23,4.57a1.24,1.24,0,0,0,1.23,1.17h9.93a1.23,1.23,0,0,0,1.23-1.17l2-39.48h-6.29c.05-.09.09-.18.14-.29.87-1.79,2.06-4.38,3.35-7.54.42-1,.83-2.07,1.25-3.18.43.09,3.88.79,5.49.43,1.46-.33,3.23-1.16,3.88-2.6a2.65,2.65,0,0,0-1.47-3.67c-2.12-.72-5.37,1.7-6.56,3.31-.07.1-.71,1.21-1.11,1.92.17-.45.34-.89.51-1.36.34-.92.65-1.85,1-2.86.14-.49.29-1,.44-1.48s.26-1,.4-1.56c.29-1.21.52-2.45.73-3.71.81.29,3.71,1.3,5.21,1.19s3.36-.65,4.22-2a2.65,2.65,0,0,0-.89-3.85c-2-1-5.57.87-7,2.28-.08.09-1,1.22-1.47,1.85.11-.76.24-1.51.33-2.28.29-2.29.5-4.61.73-6.93l1.92-1.29a12.12,12.12,0,0,0,3.65.67c1.5-.1,3.37-.65,4.23-2a2.64,2.64,0,0,0-.89-3.84c-2-1-5.57.86-7,2.28-.1.1-1.4,1.73-1.71,2.16.16-1.52.33-3,.56-4.51a47.72,47.72,0,0,1,1.29-5.92c.14.05,3.7,1.39,5.42,1.27,1.49-.1,3.36-.65,4.22-2a2.65,2.65,0,0,0-.89-3.85c-2-1-5.57.87-7,2.28-.09.1-1.08,1.33-1.54,1.93l-.11-.06a34,34,0,0,1,2.35-5.62c.51-1,1-1.93,1.6-2.81.64.31,3.57,1.74,5.13,1.8s3.41-.28,4.42-1.51a2.65,2.65,0,0,0-.47-3.92c-1.86-1.24-5.62.25-7.19,1.5-.09.07-.88.85-1.44,1.43.25-.39.51-.81.76-1.18.93-1.42,1.88-2.65,2.73-3.74.48-.62.94-1.16,1.37-1.67.78,0,4-.11,5.35-.76s2.9-1.82,3.23-3.37A2.66,2.66,0,0,0,158.1,291.65Zm-24.7,59.92c-1.35,3.1-2.59,5.64-3.48,7.4l-.49.95h-.15q-.06-.51-.15-1.14c-.27-2-.7-4.79-1.37-8.14-.2-1.06-.45-2.19-.71-3.34a32,32,0,0,0,3.07-1.44,19.39,19.39,0,0,0,4.47,2.88C134.19,349.72,133.79,350.68,133.4,351.57Z" style="fill: rgb(38, 50, 56); transform-origin: 131.887px 343.773px;" id="elf2uf9teac8k" class="animable"></path></g><g id="freepik--Shadow--inject-2" class="animable" style="transform-origin: 348.68px 417.54px;"><ellipse cx="348.68" cy="417.54" rx="31.51" ry="11.25" style="fill: rgb(23, 219, 235); transform-origin: 348.68px 417.54px;" id="el7mq53sl5ssu" class="animable"></ellipse><g id="elxhdsi3065de"><ellipse cx="348.68" cy="417.54" rx="31.51" ry="11.25" style="fill: rgb(255, 255, 255); opacity: 0.5; transform-origin: 348.68px 417.54px;" class="animable"></ellipse></g></g><g id="freepik--Character--inject-2" class="animable" style="transform-origin: 349.241px 302.865px;"><path d="M335,203.49a20.46,20.46,0,0,1-1.73,5.95c-1.23,2.17-2.48,2.54-1.58,3.07s1.63.88,1.63.88a50.35,50.35,0,0,0,1.33,6.27c.75,2.32.58,3.4,2.73,3.37s4.65-1.85,4.65-1.85.86-3.42.23-10.59A7.3,7.3,0,0,0,335,203.49Z" style="fill: rgb(255, 255, 255); stroke: rgb(38, 50, 56); stroke-linecap: round; stroke-miterlimit: 10; transform-origin: 336.937px 213.26px;" id="elow5l0mwc3v" class="animable"></path><path d="M345.78,339.48a194.82,194.82,0,0,0-1,22.75c.16,13.24-1.83,34.5-6.78,38.55-2.09,1.72-2.22,2.78-3.2,3.79s-6,1.82-5.95,3.82.34,2.74,1.85,3.72,6.7,1.67,8.45,1.65,3.45-4.54,6.41-7.07,7-3.87,7.43-5.83c.71-3-1-5.83-1.84-7.73-1.8-4.22,5.34-12.8,7-16.82s1.35-12.51.56-16,4.74-21.8,4.74-21.8Z" style="fill: rgb(255, 255, 255); stroke: rgb(38, 50, 56); stroke-linecap: round; stroke-miterlimit: 10; transform-origin: 346.15px 376.135px;" id="el1i1q2j37g8b" class="animable"></path><path d="M328.87,408.39c0,2,.34,2.74,1.85,3.72s6.7,1.67,8.45,1.65,3.45-4.54,6.41-7.07,7-3.87,7.43-5.83c.71-3-1-5.83-1.84-7.73a2.84,2.84,0,0,1-.2-.72,28,28,0,0,1-8.87-.84q-.25,1.1-.54,2.1c3.22,1.53,7.88.73,7.88.73-1,4-6.13,10.32-9.62,10.61s-5-.44-5-.44C333.83,405.58,328.84,406.39,328.87,408.39Z" style="fill: rgb(38, 50, 56); stroke: rgb(38, 50, 56); stroke-linecap: round; stroke-miterlimit: 10; transform-origin: 341.024px 402.665px;" id="elvd4gcmoa08" class="animable"></path><polygon points="349.19 401.68 350.25 414.59 351.38 414.58 352.12 400.78 349.19 401.68" style="fill: rgb(38, 50, 56); stroke: rgb(38, 50, 56); stroke-linecap: round; stroke-miterlimit: 10; transform-origin: 350.655px 407.685px;" id="elc08g3ywmmbj" class="animable"></polygon><path d="M345.78,339.48a194.82,194.82,0,0,0-1,22.75,143.46,143.46,0,0,1-2.29,27.42,16.6,16.6,0,0,0,8.38,1.68c.21-4.53,5.84-11.51,7.32-15,1.7-4,1.35-12.51.56-16s4.74-21.8,4.74-21.8Z" style="fill: rgb(23, 219, 235); transform-origin: 352.99px 364.946px;" id="eljv8g31d6bgc" class="animable"></path><g style="clip-path: url(&quot;#freepik--clip-path-2--inject-2&quot;); transform-origin: 352.99px 364.946px;" id="elo7goqerpnph" class="animable"><g id="eld3rchc3fmlc"><path d="M345.78,339.48a194.82,194.82,0,0,0-1,22.75,143.46,143.46,0,0,1-2.29,27.42,16.6,16.6,0,0,0,8.38,1.68c.21-4.53,5.84-11.51,7.32-15,1.7-4,1.35-12.51.56-16s4.74-21.8,4.74-21.8Z" style="opacity: 0.2; transform-origin: 352.99px 364.946px;" class="animable"></path></g></g><path d="M345.78,339.48a194.82,194.82,0,0,0-1,22.75,143.46,143.46,0,0,1-2.29,27.42,16.6,16.6,0,0,0,8.38,1.68c.21-4.53,5.84-11.51,7.32-15,1.7-4,1.35-12.51.56-16s4.74-21.8,4.74-21.8Z" style="fill: none; stroke: rgb(38, 50, 56); stroke-linecap: round; stroke-miterlimit: 10; transform-origin: 352.99px 364.946px;" id="el2tzinlw7kjz" class="animable"></path><path d="M339.29,340.06s2.19,15.46,4.5,20.68,6.33,28.41,5.42,35.41c0,0-3.9,8.79-4.62,11.3a48.09,48.09,0,0,1-2.42,6s-5.74,1.06-5.68,5.31c.06,5.75,10.77,3.12,10.77,3.12a5.28,5.28,0,0,0,4.94-5.55c0-1.75,1.9-7.52,4.14-8.8s4.23-1.55,4.44-4.3-2.57-6.21-2.57-6.21a58.44,58.44,0,0,1,2.31-15.77c2.41-7.77,0-17.49-1.75-21s-3.31-5.46-3.35-9,1.62-11,1.62-11S342.54,340.27,339.29,340.06Z" style="fill: rgb(255, 255, 255); stroke: rgb(38, 50, 56); stroke-linecap: round; stroke-miterlimit: 10; transform-origin: 349.013px 381.27px;" id="elv1aa325knir" class="animable"></path><path d="M355.42,351.36c0-3.5,1.62-11,1.62-11s-14.5-.08-17.75-.29c0,0,2.19,15.46,4.5,20.68,2.11,4.76,5.63,24.46,5.55,33.2,1.5.75,4.64,1.7,9-.05a56.53,56.53,0,0,1,2.2-12.61c2.41-7.77,0-17.49-1.75-21S355.46,354.86,355.42,351.36Z" style="fill: rgb(23, 219, 235); transform-origin: 350.423px 367.48px;" id="el9pw0r54ha6d" class="animable"></path><g style="clip-path: url(&quot;#freepik--clip-path-3--inject-2&quot;); transform-origin: 348.165px 344.954px;" id="eldt1rjp4x4qa" class="animable"><g id="elwf8aq3wyy4"><path d="M355.68,348c.46-3.55,1.36-7.63,1.36-7.63s-14.5-.08-17.75-.29c0,0,.6,4.18,1.49,8.93C343.79,350,348.72,350.52,355.68,348Z" style="opacity: 0.2; transform-origin: 348.165px 344.954px;" class="animable"></path></g></g><path d="M355.42,351.36c0-3.5,1.62-11,1.62-11s-14.5-.08-17.75-.29c0,0,2.19,15.46,4.5,20.68,2.11,4.76,5.63,24.46,5.55,33.2,1.5.75,4.64,1.7,9-.05a56.53,56.53,0,0,1,2.2-12.61c2.41-7.77,0-17.49-1.75-21S355.46,354.86,355.42,351.36Z" style="fill: none; stroke: rgb(38, 50, 56); stroke-linecap: round; stroke-miterlimit: 10; transform-origin: 350.423px 367.48px;" id="elgva9vjsnf6m" class="animable"></path><polygon points="357.07 406.05 358.25 421.02 359.5 421 360.3 405.02 357.07 406.05" style="fill: rgb(38, 50, 56); stroke: rgb(38, 50, 56); stroke-linecap: round; stroke-miterlimit: 10; transform-origin: 358.685px 413.02px;" id="elg3kmcsoj3y9" class="animable"></polygon><path d="M358.22,396.35c-6.16,2-9-.2-9-.2l-.23.52c-.22.49-.56,1.28-1,2.25l6,1.42s-5.59,12.56-7.33,13.58-4.5-.44-4.5-.44-5.74,1.06-5.68,5.31c.06,5.75,10.77,3.12,10.77,3.12a5.29,5.29,0,0,0,4.94-5.56c0-1.74,1.9-7.51,4.14-8.79s4.23-1.55,4.44-4.3-2.57-6.21-2.57-6.21S358.21,396.79,358.22,396.35Z" style="fill: rgb(38, 50, 56); stroke: rgb(38, 50, 56); stroke-linecap: round; stroke-miterlimit: 10; transform-origin: 348.63px 409.33px;" id="el2byaxkwp9sn" class="animable"></path><path d="M336.13,236.31s-6.42,14.63-6.36,19.3,3.83,22.2,3.85,24.13-5.49,46.48-6.52,52-1.82,8.53-1.82,8.53,12.15,5.08,22.58,4.68,24.39-4.69,24.39-4.69l-1.42-3.83a14.36,14.36,0,0,0,8.46-4.49l-12.61-44.35s-2.3-7.94-1.82-14.26,5.5-22.59,3.16-34.09-12.77-11.94-19.08-10.76S337.73,232.17,336.13,236.31Z" style="fill: rgb(38, 50, 56); stroke: rgb(38, 50, 56); stroke-linecap: round; stroke-miterlimit: 10; transform-origin: 352.285px 286.505px;" id="el22lr4w08ycz" class="animable"></path><path d="M340.37,186.55s-3.36,4-6.58,5.64-2.48,2.73-.24,9.88,5.53,12,6.31,16.81-2,13.31-6.07,18.56-10.2,2.64-8.55,5.13,5.06,3,8.26.62,6.66-14.08,12.22-14.51,9.48,7.7,10.8,13.43-3.08,22.15,4,25.36c8.22,3.72,14.71-4.53,16.71-13.8,2.16-10-6-19-8-26.17s-1.06-13.27-.48-24.95S361.56,186.3,355.06,184,342.69,185.08,340.37,186.55Z" style="fill: rgb(23, 219, 235); transform-origin: 351.278px 225.802px;" id="elbe2vhjf4yao" class="animable"></path><g style="clip-path: url(&quot;#freepik--clip-path-4--inject-2&quot;); transform-origin: 361.018px 236.642px;" id="elm466qm6z7vd" class="animable"><g id="elzzwji00anzo"><g style="opacity: 0.2; transform-origin: 361.018px 236.642px;" class="animable"><path d="M345.72,228.68c3.95-.3,7.07,3.72,9,8.13,1.21-5.33,4.11-10,8.27-9.71,3.43.22,6.91,3.62,9.48,7.72a42.33,42.33,0,0,1-3.26-7.32c-1.89-6.55-1.21-12.24-.63-22.11-1.16,3.1-3.31,6.89-7.24,9.07-7.41,4.12-15.65-9.61-15.65-9.61s5.22,11.26,6.59,15.93-9.34-13.46-7.69-7.14c1.33,5.09,1.94,10.35.84,15.08Z" id="eljazkgum3k9q" class="animable" style="transform-origin: 358.443px 220.83px;"></path><path d="M376.47,245c.79,6.3-6.71,17.6-20.08,12.84.16,4.41,1.08,8.29,4.16,9.68,8.22,3.72,14.71-4.53,16.71-13.8.95-4.43-.1-8.66-1.75-12.61A19.47,19.47,0,0,1,376.47,245Z" id="el6uy9ty2b1c9" class="animable" style="transform-origin: 367.005px 254.772px;"></path></g></g></g><path d="M340.37,186.55s-3.36,4-6.58,5.64-2.48,2.73-.24,9.88,5.53,12,6.31,16.81-2,13.31-6.07,18.56-10.2,2.64-8.55,5.13,5.06,3,8.26.62,6.66-14.08,12.22-14.51,9.48,7.7,10.8,13.43-3.08,22.15,4,25.36c8.22,3.72,14.71-4.53,16.71-13.8,2.16-10-6-19-8-26.17s-1.06-13.27-.48-24.95S361.56,186.3,355.06,184,342.69,185.08,340.37,186.55Z" style="fill: none; stroke: rgb(38, 50, 56); stroke-linecap: round; stroke-miterlimit: 10; transform-origin: 351.278px 225.802px;" id="elfpf5241ytnr" class="animable"></path><path d="M338.3,191.85s-1.39,6.18,5.49,17.24,20,29.11,20.14,40.55-3.09,11.77-3.09,11.77" style="fill: none; stroke: rgb(38, 50, 56); stroke-linecap: round; stroke-miterlimit: 10; stroke-width: 0.75px; transform-origin: 351.06px 226.63px;" id="el5yi015ve39n" class="animable"></path><path d="M347,185.88s-6.3,13,.57,23.46,23.18,24.08,24.52,38.73-3.59,18.24-5.92,19.73" style="fill: none; stroke: rgb(38, 50, 56); stroke-linecap: round; stroke-miterlimit: 10; stroke-width: 0.75px; transform-origin: 358.339px 226.84px;" id="els3xkvepz9dm" class="animable"></path><path d="M357.49,201.6s-1.65,9.4,5,22.24" style="fill: none; stroke: rgb(38, 50, 56); stroke-linecap: round; stroke-miterlimit: 10; stroke-width: 0.75px; transform-origin: 359.899px 212.72px;" id="el8sv2j6ec8ha" class="animable"></path><path d="M358.79,188.08s8,3.43,6.63,14.3-1.55,17.92.85,22.29" style="fill: none; stroke: rgb(38, 50, 56); stroke-linecap: round; stroke-miterlimit: 10; stroke-width: 0.75px; transform-origin: 362.53px 206.375px;" id="ellqsxq2zvei" class="animable"></path><path d="M339.15,214.14s3.29,5.24,3.35,9.93-3.72,8-3.72,8" style="fill: none; stroke: rgb(38, 50, 56); stroke-linecap: round; stroke-miterlimit: 10; stroke-width: 0.75px; transform-origin: 340.64px 223.105px;" id="ela6q51dz3sji" class="animable"></path><path d="M373.19,281.19c-.07-6-3.39-7.93-8.1-11.44s-6.22-16.88-7.67-23.73-4.34-16.23-8.48-17.55-7.65,2.84-7.65,2.84c-9.66,19.34-7.21,64.08-6.62,67.09s2.25,4.09,10.74,2.62,20.84-2.72,25.76-5.25S373.26,287.23,373.19,281.19Zm-18-14.34c-3.83,1.69-15,5.39-15,5.39l-4.12.05s.27-22.8,2.11-30,4.26-11.31,9.78-9.46,6.71,10.09,7.9,17.49S359,265.15,355.17,266.85Z" style="fill: rgb(255, 255, 255); transform-origin: 354.011px 264.941px;" id="elgg17bl4s6xi" class="animable"></path><g style="clip-path: url(&quot;#freepik--clip-path-5--inject-2&quot;); transform-origin: 354.011px 280.38px;" id="elkmgqf1pl9k" class="animable"><g id="el08z7wknf5kga"><path d="M366.37,270.69a19.28,19.28,0,0,0,1.86,2c2.75,2.47,1.92,8.51,1.92,12.08s-3.29,7.14-11.53,9.34-17,3-17.58,2.2,5.83-20.56,7.17-26.83c-4,1.43-8.08,2.76-8.08,2.76l-4.12.05s.07-6.23.41-13.2c-.53.92-1.15,2.16-1.83,3.67-1.28,17.23-.27,33.84.08,35.64.59,3,2.25,4.09,10.74,2.62s20.84-2.72,25.76-5.25,2.09-8.54,2-14.58C373.13,275.71,370.39,273.65,366.37,270.69Z" style="opacity: 0.2; transform-origin: 354.011px 280.38px;" class="animable"></path></g></g><path d="M373.19,281.19c-.07-6-3.39-7.93-8.1-11.44s-6.22-16.88-7.67-23.73-4.34-16.23-8.48-17.55-7.65,2.84-7.65,2.84c-9.66,19.34-7.21,64.08-6.62,67.09s2.25,4.09,10.74,2.62,20.84-2.72,25.76-5.25S373.26,287.23,373.19,281.19Zm-18-14.34c-3.83,1.69-15,5.39-15,5.39l-4.12.05s.27-22.8,2.11-30,4.26-11.31,9.78-9.46,6.71,10.09,7.9,17.49S359,265.15,355.17,266.85Z" style="fill: none; stroke: rgb(38, 50, 56); stroke-linecap: round; stroke-miterlimit: 10; transform-origin: 354.011px 264.941px;" id="el31st7bv7cqe" class="animable"></path><path d="M367.27,273.85s-14.42,6-28.06,7.78" style="fill: rgb(255, 255, 255); stroke: rgb(38, 50, 56); stroke-linecap: round; stroke-miterlimit: 10; transform-origin: 353.24px 277.74px;" id="elhll47p26nt6" class="animable"></path><path d="M364.53,275.78l.3,1.43a.89.89,0,0,0,1.18.64h0a.88.88,0,0,0,.54-1l-.29-1.44a.87.87,0,0,0-1.26-.61h0A.87.87,0,0,0,364.53,275.78Z" style="fill: rgb(255, 255, 255); stroke: rgb(38, 50, 56); stroke-linecap: round; stroke-miterlimit: 10; transform-origin: 365.538px 276.303px;" id="elm683dnte7r" class="animable"></path><path d="M328.74,284.46s-6.14,15.18-6.37,18.76,5.42,17.51,5.42,17.51.48-6.6,1-9.62-1.19-7.68-1.19-7.68L337.85,289Z" style="fill: rgb(255, 255, 255); stroke: rgb(38, 50, 56); stroke-linecap: round; stroke-miterlimit: 10; transform-origin: 330.107px 302.595px;" id="elzt78a9dsoz" class="animable"></path><path d="M320.79,295.89a.84.84,0,0,0-1.32.17,1.44,1.44,0,0,0,0,1.7c.9,1.06,4.05,4,4.36,2.57C324.05,299.29,321.93,297,320.79,295.89Z" style="fill: rgb(255, 255, 255); stroke: rgb(38, 50, 56); stroke-linecap: round; stroke-miterlimit: 10; transform-origin: 321.519px 298.179px;" id="elarhefkmjcnl" class="animable"></path><path d="M321.55,292.33a1,1,0,0,0-1.51-.22,1.66,1.66,0,0,0-.53,1.88c.67,1.45,3.27,5.65,4,4.19C324.13,297.09,322.47,293.92,321.55,292.33Z" style="fill: rgb(255, 255, 255); stroke: rgb(38, 50, 56); stroke-linecap: round; stroke-miterlimit: 10; transform-origin: 321.526px 295.172px;" id="el0trn981wqm8" class="animable"></path><path d="M322.31,290.08a1,1,0,0,0-1.58-.22,1.7,1.7,0,0,0-.54,1.94c.69,1.5,3.39,5.87,4.2,4.35C325,295,323.26,291.73,322.31,290.08Z" style="fill: rgb(255, 255, 255); stroke: rgb(38, 50, 56); stroke-linecap: round; stroke-miterlimit: 10; transform-origin: 322.298px 293.017px;" id="elsdgmstkn9oc" class="animable"></path><path d="M324.89,288.37a1,1,0,0,0-1.49-.56,1.73,1.73,0,0,0-.95,1.78c.35,1.62,2,6.47,3.15,5.16C326.42,293.78,325.46,290.2,324.89,288.37Z" style="fill: rgb(255, 255, 255); stroke: rgb(38, 50, 56); stroke-linecap: round; stroke-miterlimit: 10; transform-origin: 324.176px 291.314px;" id="eley7hn6ohxdu" class="animable"></path><path d="M351,240.8s-1-11.25-6.44-10.91c-4.15.26-7.38,3.11-8.94,10.55s-3,27.77-4.29,31.91-5.34,13-5.34,13,4.7,3,8,4.85a18.72,18.72,0,0,0,7.17,2.11s2.07-10.46,2.81-17.34,5.16-28.07,6-28.36" style="fill: rgb(38, 50, 56); stroke: rgb(38, 50, 56); stroke-linecap: round; stroke-miterlimit: 10; transform-origin: 338.495px 261.096px;" id="els9ewgsxr3za" class="animable"></path><path d="M345.25,269.18s3.85-18.05,4.29-20.32" style="fill: none; stroke: rgb(255, 255, 255); stroke-linecap: round; stroke-miterlimit: 10; stroke-width: 0.75px; transform-origin: 347.395px 259.02px;" id="elppbes0c4gdp" class="animable"></path><line x1="347.96" y1="256.51" x2="352.18" y2="249.78" style="fill: none; stroke: rgb(255, 255, 255); stroke-linecap: round; stroke-miterlimit: 10; stroke-width: 0.75px; transform-origin: 350.07px 253.145px;" id="elp438akeyxtd" class="animable"></line></g><defs>     <filter id="active" height="200%">         <feMorphology in="SourceAlpha" result="DILATED" operator="dilate" radius="2"></feMorphology>                <feFlood flood-color="#32DFEC" flood-opacity="1" result="PINK"></feFlood>        <feComposite in="PINK" in2="DILATED" operator="in" result="OUTLINE"></feComposite>        <feMerge>            <feMergeNode in="OUTLINE"></feMergeNode>            <feMergeNode in="SourceGraphic"></feMergeNode>        </feMerge>    </filter>    <filter id="hover" height="200%">        <feMorphology in="SourceAlpha" result="DILATED" operator="dilate" radius="2"></feMorphology>                <feFlood flood-color="#ff0000" flood-opacity="0.5" result="PINK"></feFlood>        <feComposite in="PINK" in2="DILATED" operator="in" result="OUTLINE"></feComposite>        <feMerge>            <feMergeNode in="OUTLINE"></feMergeNode>            <feMergeNode in="SourceGraphic"></feMergeNode>        </feMerge>            <feColorMatrix type="matrix" values="0   0   0   0   0                0   1   0   0   0                0   0   0   0   0                0   0   0   1   0 "></feColorMatrix>    </filter></defs><defs><clipPath id="freepik--clip-path--inject-2"><rect x="176.18" y="118.56" width="141.4" height="213.77" style="fill:#fff;stroke:#263238;stroke-miterlimit:10;stroke-width:2px"></rect></clipPath><clipPath id="freepik--clip-path-2--inject-2"><path d="M345.78,339.48a194.82,194.82,0,0,0-1,22.75,143.46,143.46,0,0,1-2.29,27.42,16.6,16.6,0,0,0,8.38,1.68c.21-4.53,5.84-11.51,7.32-15,1.7-4,1.35-12.51.56-16s4.74-21.8,4.74-21.8Z" style="fill:#17DBEB;stroke:#263238;stroke-linecap:round;stroke-miterlimit:10"></path></clipPath><clipPath id="freepik--clip-path-3--inject-2"><path d="M355.42,351.36c0-3.5,1.62-11,1.62-11s-14.5-.08-17.75-.29c0,0,2.19,15.46,4.5,20.68,2.11,4.76,5.63,24.46,5.55,33.2,1.5.75,4.64,1.7,9-.05a56.53,56.53,0,0,1,2.2-12.61c2.41-7.77,0-17.49-1.75-21S355.46,354.86,355.42,351.36Z" style="fill:#17DBEB;stroke:#263238;stroke-linecap:round;stroke-miterlimit:10"></path></clipPath><clipPath id="freepik--clip-path-4--inject-2"><path d="M340.37,186.55s-3.36,4-6.58,5.64-2.48,2.73-.24,9.88,5.53,12,6.31,16.81-2,13.31-6.07,18.56-10.2,2.64-8.55,5.13,5.06,3,8.26.62,6.66-14.08,12.22-14.51,9.48,7.7,10.8,13.43-3.08,22.15,4,25.36c8.22,3.72,14.71-4.53,16.71-13.8,2.16-10-6-19-8-26.17s-1.06-13.27-.48-24.95S361.56,186.3,355.06,184,342.69,185.08,340.37,186.55Z" style="fill:#17DBEB;stroke:#263238;stroke-linecap:round;stroke-miterlimit:10"></path></clipPath><clipPath id="freepik--clip-path-5--inject-2"><path d="M373.19,281.19c-.07-6-3.39-7.93-8.1-11.44s-6.22-16.88-7.67-23.73-4.34-16.23-8.48-17.55-7.65,2.84-7.65,2.84c-9.66,19.34-7.21,64.08-6.62,67.09s2.25,4.09,10.74,2.62,20.84-2.72,25.76-5.25S373.26,287.23,373.19,281.19Zm-18-14.34c-3.83,1.69-15,5.39-15,5.39l-4.12.05s.27-22.8,2.11-30,4.26-11.31,9.78-9.46,6.71,10.09,7.9,17.49S359,265.15,355.17,266.85Z" style="fill:#fff;stroke:#263238;stroke-linecap:round;stroke-miterlimit:10"></path></clipPath></defs></svg>